<mxfile host="app.diagrams.net" agent="Mozilla/5.0 (X11; Ubuntu; Linux x86_64; rv:138.0) Gecko/20100101 Firefox/138.0" version="27.0.3">
  <diagram id="C5RBs43oDa-KdzZeNtuy" name="Page-1">
    <mxGraphModel dx="2253" dy="795" grid="1" gridSize="10" guides="1" tooltips="1" connect="1" arrows="1" fold="1" page="1" pageScale="1" pageWidth="827" pageHeight="1169" math="0" shadow="0">
      <root>
        <mxCell id="WIyWlLk6GJQsqaUBKTNV-0" />
        <mxCell id="WIyWlLk6GJQsqaUBKTNV-1" parent="WIyWlLk6GJQsqaUBKTNV-0" />
        <mxCell id="llLbmUyGiM_DSp_lShBI-13" style="edgeStyle=orthogonalEdgeStyle;rounded=0;orthogonalLoop=1;jettySize=auto;html=1;entryX=0;entryY=0.5;entryDx=0;entryDy=0;" parent="WIyWlLk6GJQsqaUBKTNV-1" source="llLbmUyGiM_DSp_lShBI-0" target="llLbmUyGiM_DSp_lShBI-12" edge="1">
          <mxGeometry relative="1" as="geometry" />
        </mxCell>
        <mxCell id="llLbmUyGiM_DSp_lShBI-16" style="edgeStyle=orthogonalEdgeStyle;rounded=0;orthogonalLoop=1;jettySize=auto;html=1;exitX=0.5;exitY=1;exitDx=0;exitDy=0;entryX=0.5;entryY=0;entryDx=0;entryDy=0;" parent="WIyWlLk6GJQsqaUBKTNV-1" source="llLbmUyGiM_DSp_lShBI-0" target="llLbmUyGiM_DSp_lShBI-15" edge="1">
          <mxGeometry relative="1" as="geometry" />
        </mxCell>
        <mxCell id="llLbmUyGiM_DSp_lShBI-0" value="&lt;font style=&quot;font-size: 19px;&quot;&gt;&lt;b&gt;Artículo&lt;/b&gt;&lt;/font&gt;" style="rounded=0;whiteSpace=wrap;html=1;" parent="WIyWlLk6GJQsqaUBKTNV-1" vertex="1">
          <mxGeometry x="115" y="294.5" width="120" height="60" as="geometry" />
        </mxCell>
        <mxCell id="llLbmUyGiM_DSp_lShBI-1" value="&lt;b&gt;&lt;font style=&quot;font-size: 19px;&quot;&gt;Categoría&lt;/font&gt;&lt;/b&gt;" style="rounded=0;whiteSpace=wrap;html=1;" parent="WIyWlLk6GJQsqaUBKTNV-1" vertex="1">
          <mxGeometry x="545" y="294.5" width="120" height="60" as="geometry" />
        </mxCell>
        <mxCell id="llLbmUyGiM_DSp_lShBI-2" value="&lt;b&gt;&lt;font style=&quot;font-size: 18px;&quot;&gt;Proveedor&lt;/font&gt;&lt;/b&gt;" style="rounded=0;whiteSpace=wrap;html=1;" parent="WIyWlLk6GJQsqaUBKTNV-1" vertex="1">
          <mxGeometry x="115" y="524.5" width="120" height="60" as="geometry" />
        </mxCell>
        <mxCell id="llLbmUyGiM_DSp_lShBI-3" value="&lt;font style=&quot;font-size: 19px;&quot;&gt;&lt;b&gt;&lt;font&gt;Cliente&lt;/font&gt;&lt;/b&gt;&lt;/font&gt;" style="rounded=0;whiteSpace=wrap;html=1;" parent="WIyWlLk6GJQsqaUBKTNV-1" vertex="1">
          <mxGeometry x="545" y="90" width="120" height="60" as="geometry" />
        </mxCell>
        <mxCell id="llLbmUyGiM_DSp_lShBI-26" style="edgeStyle=orthogonalEdgeStyle;rounded=0;orthogonalLoop=1;jettySize=auto;html=1;exitX=0.5;exitY=0;exitDx=0;exitDy=0;entryX=0.5;entryY=1;entryDx=0;entryDy=0;" parent="WIyWlLk6GJQsqaUBKTNV-1" source="llLbmUyGiM_DSp_lShBI-4" target="llLbmUyGiM_DSp_lShBI-24" edge="1">
          <mxGeometry relative="1" as="geometry">
            <mxPoint x="-150" y="150" as="targetPoint" />
            <Array as="points" />
          </mxGeometry>
        </mxCell>
        <mxCell id="llLbmUyGiM_DSp_lShBI-31" style="edgeStyle=orthogonalEdgeStyle;rounded=0;orthogonalLoop=1;jettySize=auto;html=1;exitX=1;exitY=0.5;exitDx=0;exitDy=0;entryX=0;entryY=0.5;entryDx=0;entryDy=0;" parent="WIyWlLk6GJQsqaUBKTNV-1" source="llLbmUyGiM_DSp_lShBI-4" target="llLbmUyGiM_DSp_lShBI-30" edge="1">
          <mxGeometry relative="1" as="geometry">
            <Array as="points">
              <mxPoint x="-155" y="220" />
              <mxPoint x="-100" y="220" />
              <mxPoint x="-100" y="120" />
            </Array>
          </mxGeometry>
        </mxCell>
        <mxCell id="llLbmUyGiM_DSp_lShBI-4" value="&lt;b&gt;&lt;font style=&quot;font-size: 19px;&quot;&gt;Empleado&lt;/font&gt;&lt;/b&gt;" style="rounded=0;whiteSpace=wrap;html=1;" parent="WIyWlLk6GJQsqaUBKTNV-1" vertex="1">
          <mxGeometry x="-275" y="180" width="120" height="60" as="geometry" />
        </mxCell>
        <mxCell id="llLbmUyGiM_DSp_lShBI-5" value="&lt;b&gt;&lt;font style=&quot;font-size: 19px;&quot;&gt;Sucursal&lt;/font&gt;&lt;/b&gt;" style="rounded=0;whiteSpace=wrap;html=1;" parent="WIyWlLk6GJQsqaUBKTNV-1" vertex="1">
          <mxGeometry x="-460" y="80" width="120" height="60" as="geometry" />
        </mxCell>
        <mxCell id="llLbmUyGiM_DSp_lShBI-19" style="edgeStyle=orthogonalEdgeStyle;rounded=0;orthogonalLoop=1;jettySize=auto;html=1;exitX=0.5;exitY=1;exitDx=0;exitDy=0;entryX=0.5;entryY=0;entryDx=0;entryDy=0;" parent="WIyWlLk6GJQsqaUBKTNV-1" source="llLbmUyGiM_DSp_lShBI-6" target="llLbmUyGiM_DSp_lShBI-18" edge="1">
          <mxGeometry relative="1" as="geometry" />
        </mxCell>
        <mxCell id="llLbmUyGiM_DSp_lShBI-22" style="edgeStyle=orthogonalEdgeStyle;rounded=0;orthogonalLoop=1;jettySize=auto;html=1;exitX=1;exitY=0.5;exitDx=0;exitDy=0;entryX=0;entryY=0.5;entryDx=0;entryDy=0;" parent="WIyWlLk6GJQsqaUBKTNV-1" source="llLbmUyGiM_DSp_lShBI-6" target="llLbmUyGiM_DSp_lShBI-21" edge="1">
          <mxGeometry relative="1" as="geometry" />
        </mxCell>
        <mxCell id="llLbmUyGiM_DSp_lShBI-6" value="&lt;b&gt;&lt;font style=&quot;font-size: 19px;&quot;&gt;Venta&lt;/font&gt;&lt;/b&gt;" style="rounded=0;whiteSpace=wrap;html=1;" parent="WIyWlLk6GJQsqaUBKTNV-1" vertex="1">
          <mxGeometry x="115" y="90" width="120" height="60" as="geometry" />
        </mxCell>
        <mxCell id="llLbmUyGiM_DSp_lShBI-28" style="edgeStyle=orthogonalEdgeStyle;rounded=0;orthogonalLoop=1;jettySize=auto;html=1;entryX=0.5;entryY=1;entryDx=0;entryDy=0;exitX=0.5;exitY=1;exitDx=0;exitDy=0;" parent="WIyWlLk6GJQsqaUBKTNV-1" source="llLbmUyGiM_DSp_lShBI-4" target="llLbmUyGiM_DSp_lShBI-50" edge="1">
          <mxGeometry relative="1" as="geometry">
            <Array as="points">
              <mxPoint x="-215" y="330" />
              <mxPoint x="-325" y="330" />
            </Array>
            <mxPoint x="-290" y="355" as="sourcePoint" />
          </mxGeometry>
        </mxCell>
        <mxCell id="llLbmUyGiM_DSp_lShBI-14" style="edgeStyle=orthogonalEdgeStyle;rounded=0;orthogonalLoop=1;jettySize=auto;html=1;exitX=1;exitY=0.5;exitDx=0;exitDy=0;entryX=0;entryY=0.5;entryDx=0;entryDy=0;" parent="WIyWlLk6GJQsqaUBKTNV-1" source="llLbmUyGiM_DSp_lShBI-12" target="llLbmUyGiM_DSp_lShBI-1" edge="1">
          <mxGeometry relative="1" as="geometry" />
        </mxCell>
        <mxCell id="llLbmUyGiM_DSp_lShBI-12" value="&lt;font style=&quot;font-size: 15px;&quot;&gt;&lt;b&gt;pertenece a&lt;/b&gt;&lt;/font&gt;" style="rhombus;whiteSpace=wrap;html=1;" parent="WIyWlLk6GJQsqaUBKTNV-1" vertex="1">
          <mxGeometry x="335" y="294.5" width="130" height="60" as="geometry" />
        </mxCell>
        <mxCell id="llLbmUyGiM_DSp_lShBI-17" style="edgeStyle=orthogonalEdgeStyle;rounded=0;orthogonalLoop=1;jettySize=auto;html=1;exitX=0.5;exitY=1;exitDx=0;exitDy=0;entryX=0.5;entryY=0;entryDx=0;entryDy=0;" parent="WIyWlLk6GJQsqaUBKTNV-1" source="llLbmUyGiM_DSp_lShBI-15" target="llLbmUyGiM_DSp_lShBI-2" edge="1">
          <mxGeometry relative="1" as="geometry" />
        </mxCell>
        <mxCell id="llLbmUyGiM_DSp_lShBI-15" value="&lt;font style=&quot;font-size: 15px;&quot;&gt;&lt;b&gt;es surtido por&lt;/b&gt;&lt;/font&gt;" style="rhombus;whiteSpace=wrap;html=1;" parent="WIyWlLk6GJQsqaUBKTNV-1" vertex="1">
          <mxGeometry x="110" y="404.5" width="130" height="60" as="geometry" />
        </mxCell>
        <mxCell id="llLbmUyGiM_DSp_lShBI-20" style="edgeStyle=orthogonalEdgeStyle;rounded=0;orthogonalLoop=1;jettySize=auto;html=1;exitX=0.5;exitY=1;exitDx=0;exitDy=0;entryX=0.5;entryY=0;entryDx=0;entryDy=0;" parent="WIyWlLk6GJQsqaUBKTNV-1" source="llLbmUyGiM_DSp_lShBI-18" target="llLbmUyGiM_DSp_lShBI-0" edge="1">
          <mxGeometry relative="1" as="geometry" />
        </mxCell>
        <mxCell id="llLbmUyGiM_DSp_lShBI-18" value="&lt;font style=&quot;font-size: 15px;&quot;&gt;&lt;b&gt;contiene a&lt;/b&gt;&lt;/font&gt;" style="rhombus;whiteSpace=wrap;html=1;" parent="WIyWlLk6GJQsqaUBKTNV-1" vertex="1">
          <mxGeometry x="110" y="190" width="130" height="60" as="geometry" />
        </mxCell>
        <mxCell id="llLbmUyGiM_DSp_lShBI-23" style="edgeStyle=orthogonalEdgeStyle;rounded=0;orthogonalLoop=1;jettySize=auto;html=1;exitX=1;exitY=0.5;exitDx=0;exitDy=0;entryX=0;entryY=0.5;entryDx=0;entryDy=0;" parent="WIyWlLk6GJQsqaUBKTNV-1" source="llLbmUyGiM_DSp_lShBI-21" target="llLbmUyGiM_DSp_lShBI-3" edge="1">
          <mxGeometry relative="1" as="geometry" />
        </mxCell>
        <mxCell id="llLbmUyGiM_DSp_lShBI-21" value="&lt;font style=&quot;font-size: 15px;&quot;&gt;&lt;b&gt;hecha por&lt;/b&gt;&lt;/font&gt;" style="rhombus;whiteSpace=wrap;html=1;" parent="WIyWlLk6GJQsqaUBKTNV-1" vertex="1">
          <mxGeometry x="335" y="90" width="130" height="60" as="geometry" />
        </mxCell>
        <mxCell id="llLbmUyGiM_DSp_lShBI-25" style="edgeStyle=orthogonalEdgeStyle;rounded=0;orthogonalLoop=1;jettySize=auto;html=1;exitX=0;exitY=0.5;exitDx=0;exitDy=0;entryX=1;entryY=0.5;entryDx=0;entryDy=0;" parent="WIyWlLk6GJQsqaUBKTNV-1" source="llLbmUyGiM_DSp_lShBI-24" target="llLbmUyGiM_DSp_lShBI-5" edge="1">
          <mxGeometry relative="1" as="geometry" />
        </mxCell>
        <mxCell id="llLbmUyGiM_DSp_lShBI-24" value="&lt;font style=&quot;font-size: 15px;&quot;&gt;&lt;b&gt;trabaja en&lt;/b&gt;&lt;/font&gt;" style="rhombus;whiteSpace=wrap;html=1;" parent="WIyWlLk6GJQsqaUBKTNV-1" vertex="1">
          <mxGeometry x="-280" y="80" width="130" height="60" as="geometry" />
        </mxCell>
        <mxCell id="llLbmUyGiM_DSp_lShBI-32" style="edgeStyle=orthogonalEdgeStyle;rounded=0;orthogonalLoop=1;jettySize=auto;html=1;exitX=1;exitY=0.5;exitDx=0;exitDy=0;entryX=0;entryY=0.5;entryDx=0;entryDy=0;" parent="WIyWlLk6GJQsqaUBKTNV-1" source="llLbmUyGiM_DSp_lShBI-30" target="llLbmUyGiM_DSp_lShBI-6" edge="1">
          <mxGeometry relative="1" as="geometry" />
        </mxCell>
        <mxCell id="llLbmUyGiM_DSp_lShBI-30" value="&lt;font style=&quot;font-size: 15px;&quot;&gt;&lt;b&gt;realiza&lt;/b&gt;&lt;/font&gt;" style="rhombus;whiteSpace=wrap;html=1;" parent="WIyWlLk6GJQsqaUBKTNV-1" vertex="1">
          <mxGeometry x="-80" y="90" width="130" height="60" as="geometry" />
        </mxCell>
        <mxCell id="llLbmUyGiM_DSp_lShBI-33" value="(1,1)" style="text;html=1;align=center;verticalAlign=middle;whiteSpace=wrap;rounded=0;" parent="WIyWlLk6GJQsqaUBKTNV-1" vertex="1">
          <mxGeometry x="235" y="294.5" width="60" height="30" as="geometry" />
        </mxCell>
        <mxCell id="llLbmUyGiM_DSp_lShBI-34" value="(1,m)" style="text;html=1;align=center;verticalAlign=middle;whiteSpace=wrap;rounded=0;" parent="WIyWlLk6GJQsqaUBKTNV-1" vertex="1">
          <mxGeometry x="480" y="294.5" width="60" height="30" as="geometry" />
        </mxCell>
        <mxCell id="llLbmUyGiM_DSp_lShBI-35" value="(1,m)" style="text;html=1;align=center;verticalAlign=middle;whiteSpace=wrap;rounded=0;" parent="WIyWlLk6GJQsqaUBKTNV-1" vertex="1">
          <mxGeometry x="370" y="264.5" width="60" height="30" as="geometry" />
        </mxCell>
        <mxCell id="llLbmUyGiM_DSp_lShBI-36" value="(1,m)" style="text;html=1;align=center;verticalAlign=middle;whiteSpace=wrap;rounded=0;" parent="WIyWlLk6GJQsqaUBKTNV-1" vertex="1">
          <mxGeometry x="370" y="60" width="60" height="30" as="geometry" />
        </mxCell>
        <mxCell id="llLbmUyGiM_DSp_lShBI-37" value="(1,m)" style="text;html=1;align=center;verticalAlign=middle;whiteSpace=wrap;rounded=0;" parent="WIyWlLk6GJQsqaUBKTNV-1" vertex="1">
          <mxGeometry x="235" y="90" width="60" height="30" as="geometry" />
        </mxCell>
        <mxCell id="llLbmUyGiM_DSp_lShBI-38" value="(1,1)" style="text;html=1;align=center;verticalAlign=middle;whiteSpace=wrap;rounded=0;" parent="WIyWlLk6GJQsqaUBKTNV-1" vertex="1">
          <mxGeometry x="480" y="90" width="60" height="30" as="geometry" />
        </mxCell>
        <mxCell id="llLbmUyGiM_DSp_lShBI-39" value="(1,m)" style="text;html=1;align=center;verticalAlign=middle;whiteSpace=wrap;rounded=0;" parent="WIyWlLk6GJQsqaUBKTNV-1" vertex="1">
          <mxGeometry x="180" y="474.5" width="60" height="30" as="geometry" />
        </mxCell>
        <mxCell id="llLbmUyGiM_DSp_lShBI-40" value="(m,m)" style="text;html=1;align=center;verticalAlign=middle;whiteSpace=wrap;rounded=0;" parent="WIyWlLk6GJQsqaUBKTNV-1" vertex="1">
          <mxGeometry x="240" y="414.5" width="60" height="30" as="geometry" />
        </mxCell>
        <mxCell id="llLbmUyGiM_DSp_lShBI-41" value="(1,m)" style="text;html=1;align=center;verticalAlign=middle;whiteSpace=wrap;rounded=0;" parent="WIyWlLk6GJQsqaUBKTNV-1" vertex="1">
          <mxGeometry x="180" y="364.5" width="60" height="30" as="geometry" />
        </mxCell>
        <mxCell id="llLbmUyGiM_DSp_lShBI-42" value="(m,m)" style="text;html=1;align=center;verticalAlign=middle;whiteSpace=wrap;rounded=0;" parent="WIyWlLk6GJQsqaUBKTNV-1" vertex="1">
          <mxGeometry x="240" y="200" width="60" height="30" as="geometry" />
        </mxCell>
        <mxCell id="llLbmUyGiM_DSp_lShBI-43" value="(1,m)" style="text;html=1;align=center;verticalAlign=middle;whiteSpace=wrap;rounded=0;" parent="WIyWlLk6GJQsqaUBKTNV-1" vertex="1">
          <mxGeometry x="175" y="160" width="60" height="30" as="geometry" />
        </mxCell>
        <mxCell id="llLbmUyGiM_DSp_lShBI-44" value="(1,m)" style="text;html=1;align=center;verticalAlign=middle;whiteSpace=wrap;rounded=0;" parent="WIyWlLk6GJQsqaUBKTNV-1" vertex="1">
          <mxGeometry x="175" y="250" width="60" height="30" as="geometry" />
        </mxCell>
        <mxCell id="llLbmUyGiM_DSp_lShBI-45" value="(1,m)" style="text;html=1;align=center;verticalAlign=middle;whiteSpace=wrap;rounded=0;" parent="WIyWlLk6GJQsqaUBKTNV-1" vertex="1">
          <mxGeometry x="-45" y="60" width="60" height="30" as="geometry" />
        </mxCell>
        <mxCell id="llLbmUyGiM_DSp_lShBI-47" value="(1,m)" style="text;html=1;align=center;verticalAlign=middle;whiteSpace=wrap;rounded=0;" parent="WIyWlLk6GJQsqaUBKTNV-1" vertex="1">
          <mxGeometry x="50" y="90" width="60" height="30" as="geometry" />
        </mxCell>
        <mxCell id="llLbmUyGiM_DSp_lShBI-48" value="(1,1)" style="text;html=1;align=center;verticalAlign=middle;whiteSpace=wrap;rounded=0;" parent="WIyWlLk6GJQsqaUBKTNV-1" vertex="1">
          <mxGeometry x="-160" y="190" width="60" height="30" as="geometry" />
        </mxCell>
        <mxCell id="llLbmUyGiM_DSp_lShBI-51" style="edgeStyle=orthogonalEdgeStyle;rounded=0;orthogonalLoop=1;jettySize=auto;html=1;exitX=0.5;exitY=0;exitDx=0;exitDy=0;entryX=0;entryY=0.5;entryDx=0;entryDy=0;" parent="WIyWlLk6GJQsqaUBKTNV-1" source="llLbmUyGiM_DSp_lShBI-50" target="llLbmUyGiM_DSp_lShBI-4" edge="1">
          <mxGeometry relative="1" as="geometry" />
        </mxCell>
        <mxCell id="llLbmUyGiM_DSp_lShBI-50" value="&lt;b&gt;supervisa&lt;/b&gt;" style="rhombus;whiteSpace=wrap;html=1;" parent="WIyWlLk6GJQsqaUBKTNV-1" vertex="1">
          <mxGeometry x="-375" y="237.25" width="100" height="55.5" as="geometry" />
        </mxCell>
        <mxCell id="llLbmUyGiM_DSp_lShBI-56" value="(1,m)" style="text;html=1;align=center;verticalAlign=middle;whiteSpace=wrap;rounded=0;" parent="WIyWlLk6GJQsqaUBKTNV-1" vertex="1">
          <mxGeometry x="-435" y="250" width="60" height="30" as="geometry" />
        </mxCell>
        <mxCell id="llLbmUyGiM_DSp_lShBI-57" value="(1,1)" style="text;html=1;align=center;verticalAlign=middle;whiteSpace=wrap;rounded=0;" parent="WIyWlLk6GJQsqaUBKTNV-1" vertex="1">
          <mxGeometry x="-295" y="290" width="60" height="30" as="geometry" />
        </mxCell>
        <mxCell id="llLbmUyGiM_DSp_lShBI-58" value="(1,m)" style="text;html=1;align=center;verticalAlign=middle;whiteSpace=wrap;rounded=0;" parent="WIyWlLk6GJQsqaUBKTNV-1" vertex="1">
          <mxGeometry x="-350" y="170" width="60" height="30" as="geometry" />
        </mxCell>
        <mxCell id="llLbmUyGiM_DSp_lShBI-59" value="(1,m)" style="text;html=1;align=center;verticalAlign=middle;whiteSpace=wrap;rounded=0;" parent="WIyWlLk6GJQsqaUBKTNV-1" vertex="1">
          <mxGeometry x="-215" y="150" width="60" height="30" as="geometry" />
        </mxCell>
        <mxCell id="llLbmUyGiM_DSp_lShBI-60" value="(1,1)" style="text;html=1;align=center;verticalAlign=middle;whiteSpace=wrap;rounded=0;" parent="WIyWlLk6GJQsqaUBKTNV-1" vertex="1">
          <mxGeometry x="-335" y="110" width="60" height="30" as="geometry" />
        </mxCell>
        <mxCell id="llLbmUyGiM_DSp_lShBI-61" value="(1,m)" style="text;html=1;align=center;verticalAlign=middle;whiteSpace=wrap;rounded=0;" parent="WIyWlLk6GJQsqaUBKTNV-1" vertex="1">
          <mxGeometry x="-245" y="40" width="60" height="30" as="geometry" />
        </mxCell>
        <mxCell id="HCAQLr0svEUG1q-5PZJa-0" style="edgeStyle=orthogonalEdgeStyle;rounded=0;orthogonalLoop=1;jettySize=auto;html=1;entryX=0;entryY=0.5;entryDx=0;entryDy=0;" parent="WIyWlLk6GJQsqaUBKTNV-1" source="HCAQLr0svEUG1q-5PZJa-2" target="HCAQLr0svEUG1q-5PZJa-17" edge="1">
          <mxGeometry relative="1" as="geometry" />
        </mxCell>
        <mxCell id="HCAQLr0svEUG1q-5PZJa-1" style="edgeStyle=orthogonalEdgeStyle;rounded=0;orthogonalLoop=1;jettySize=auto;html=1;exitX=0.5;exitY=1;exitDx=0;exitDy=0;entryX=0.5;entryY=0;entryDx=0;entryDy=0;" parent="WIyWlLk6GJQsqaUBKTNV-1" source="HCAQLr0svEUG1q-5PZJa-2" target="HCAQLr0svEUG1q-5PZJa-19" edge="1">
          <mxGeometry relative="1" as="geometry" />
        </mxCell>
        <mxCell id="HCAQLr0svEUG1q-5PZJa-2" value="&lt;font style=&quot;font-size: 19px;&quot;&gt;&lt;b&gt;Article/Product&lt;/b&gt;&lt;/font&gt;" style="rounded=0;whiteSpace=wrap;html=1;" parent="WIyWlLk6GJQsqaUBKTNV-1" vertex="1">
          <mxGeometry x="125" y="934.5" width="120" height="60" as="geometry" />
        </mxCell>
        <mxCell id="HCAQLr0svEUG1q-5PZJa-3" value="&lt;b&gt;&lt;font style=&quot;font-size: 19px;&quot;&gt;Category&lt;/font&gt;&lt;/b&gt;" style="rounded=0;whiteSpace=wrap;html=1;" parent="WIyWlLk6GJQsqaUBKTNV-1" vertex="1">
          <mxGeometry x="555" y="934.5" width="120" height="60" as="geometry" />
        </mxCell>
        <mxCell id="HCAQLr0svEUG1q-5PZJa-4" value="&lt;b&gt;&lt;font style=&quot;font-size: 18px;&quot;&gt;Supplier&lt;/font&gt;&lt;/b&gt;" style="rounded=0;whiteSpace=wrap;html=1;" parent="WIyWlLk6GJQsqaUBKTNV-1" vertex="1">
          <mxGeometry x="125" y="1164.5" width="120" height="60" as="geometry" />
        </mxCell>
        <mxCell id="HCAQLr0svEUG1q-5PZJa-5" value="&lt;font style=&quot;font-size: 19px;&quot;&gt;&lt;b&gt;&lt;font&gt;Client&lt;/font&gt;&lt;/b&gt;&lt;/font&gt;" style="rounded=0;whiteSpace=wrap;html=1;" parent="WIyWlLk6GJQsqaUBKTNV-1" vertex="1">
          <mxGeometry x="555" y="730" width="120" height="60" as="geometry" />
        </mxCell>
        <mxCell id="HCAQLr0svEUG1q-5PZJa-6" style="edgeStyle=orthogonalEdgeStyle;rounded=0;orthogonalLoop=1;jettySize=auto;html=1;exitX=0.5;exitY=0;exitDx=0;exitDy=0;entryX=0.5;entryY=1;entryDx=0;entryDy=0;" parent="WIyWlLk6GJQsqaUBKTNV-1" source="HCAQLr0svEUG1q-5PZJa-9" target="HCAQLr0svEUG1q-5PZJa-25" edge="1">
          <mxGeometry relative="1" as="geometry">
            <mxPoint x="-140" y="790" as="targetPoint" />
            <Array as="points" />
          </mxGeometry>
        </mxCell>
        <mxCell id="HCAQLr0svEUG1q-5PZJa-8" style="edgeStyle=orthogonalEdgeStyle;rounded=0;orthogonalLoop=1;jettySize=auto;html=1;exitX=1;exitY=0.5;exitDx=0;exitDy=0;entryX=0;entryY=0.5;entryDx=0;entryDy=0;" parent="WIyWlLk6GJQsqaUBKTNV-1" source="HCAQLr0svEUG1q-5PZJa-9" target="HCAQLr0svEUG1q-5PZJa-27" edge="1">
          <mxGeometry relative="1" as="geometry">
            <Array as="points">
              <mxPoint x="-145" y="860" />
              <mxPoint x="-90" y="860" />
              <mxPoint x="-90" y="760" />
            </Array>
          </mxGeometry>
        </mxCell>
        <mxCell id="HCAQLr0svEUG1q-5PZJa-9" value="&lt;b&gt;&lt;font style=&quot;font-size: 19px;&quot;&gt;Employee&lt;/font&gt;&lt;/b&gt;" style="rounded=0;whiteSpace=wrap;html=1;" parent="WIyWlLk6GJQsqaUBKTNV-1" vertex="1">
          <mxGeometry x="-265" y="820" width="120" height="60" as="geometry" />
        </mxCell>
        <mxCell id="HCAQLr0svEUG1q-5PZJa-10" value="&lt;b&gt;&lt;font style=&quot;font-size: 19px;&quot;&gt;Branch Office&lt;/font&gt;&lt;/b&gt;" style="rounded=0;whiteSpace=wrap;html=1;" parent="WIyWlLk6GJQsqaUBKTNV-1" vertex="1">
          <mxGeometry x="-450" y="720" width="120" height="60" as="geometry" />
        </mxCell>
        <mxCell id="HCAQLr0svEUG1q-5PZJa-11" style="edgeStyle=orthogonalEdgeStyle;rounded=0;orthogonalLoop=1;jettySize=auto;html=1;exitX=0.5;exitY=1;exitDx=0;exitDy=0;entryX=0.5;entryY=0;entryDx=0;entryDy=0;" parent="WIyWlLk6GJQsqaUBKTNV-1" source="HCAQLr0svEUG1q-5PZJa-13" target="HCAQLr0svEUG1q-5PZJa-21" edge="1">
          <mxGeometry relative="1" as="geometry" />
        </mxCell>
        <mxCell id="HCAQLr0svEUG1q-5PZJa-12" style="edgeStyle=orthogonalEdgeStyle;rounded=0;orthogonalLoop=1;jettySize=auto;html=1;exitX=1;exitY=0.5;exitDx=0;exitDy=0;entryX=0;entryY=0.5;entryDx=0;entryDy=0;" parent="WIyWlLk6GJQsqaUBKTNV-1" source="HCAQLr0svEUG1q-5PZJa-13" target="HCAQLr0svEUG1q-5PZJa-23" edge="1">
          <mxGeometry relative="1" as="geometry" />
        </mxCell>
        <mxCell id="HCAQLr0svEUG1q-5PZJa-13" value="&lt;b&gt;&lt;font style=&quot;font-size: 19px;&quot;&gt;Sales&lt;/font&gt;&lt;/b&gt;" style="rounded=0;whiteSpace=wrap;html=1;" parent="WIyWlLk6GJQsqaUBKTNV-1" vertex="1">
          <mxGeometry x="125" y="730" width="120" height="60" as="geometry" />
        </mxCell>
        <mxCell id="HCAQLr0svEUG1q-5PZJa-14" style="edgeStyle=orthogonalEdgeStyle;rounded=0;orthogonalLoop=1;jettySize=auto;html=1;entryX=0.5;entryY=1;entryDx=0;entryDy=0;exitX=0.5;exitY=1;exitDx=0;exitDy=0;" parent="WIyWlLk6GJQsqaUBKTNV-1" source="HCAQLr0svEUG1q-5PZJa-9" target="HCAQLr0svEUG1q-5PZJa-45" edge="1">
          <mxGeometry relative="1" as="geometry">
            <Array as="points">
              <mxPoint x="-205" y="950" />
              <mxPoint x="-325" y="950" />
            </Array>
            <mxPoint x="-205" y="950" as="sourcePoint" />
          </mxGeometry>
        </mxCell>
        <mxCell id="HCAQLr0svEUG1q-5PZJa-16" style="edgeStyle=orthogonalEdgeStyle;rounded=0;orthogonalLoop=1;jettySize=auto;html=1;exitX=1;exitY=0.5;exitDx=0;exitDy=0;entryX=0;entryY=0.5;entryDx=0;entryDy=0;" parent="WIyWlLk6GJQsqaUBKTNV-1" source="HCAQLr0svEUG1q-5PZJa-17" target="HCAQLr0svEUG1q-5PZJa-3" edge="1">
          <mxGeometry relative="1" as="geometry" />
        </mxCell>
        <mxCell id="HCAQLr0svEUG1q-5PZJa-17" value="&lt;font style=&quot;font-size: 15px;&quot;&gt;&lt;b&gt;belongs to&lt;/b&gt;&lt;/font&gt;" style="rhombus;whiteSpace=wrap;html=1;" parent="WIyWlLk6GJQsqaUBKTNV-1" vertex="1">
          <mxGeometry x="345" y="934.5" width="130" height="60" as="geometry" />
        </mxCell>
        <mxCell id="HCAQLr0svEUG1q-5PZJa-18" style="edgeStyle=orthogonalEdgeStyle;rounded=0;orthogonalLoop=1;jettySize=auto;html=1;exitX=0.5;exitY=1;exitDx=0;exitDy=0;entryX=0.5;entryY=0;entryDx=0;entryDy=0;" parent="WIyWlLk6GJQsqaUBKTNV-1" source="HCAQLr0svEUG1q-5PZJa-19" target="HCAQLr0svEUG1q-5PZJa-4" edge="1">
          <mxGeometry relative="1" as="geometry" />
        </mxCell>
        <mxCell id="HCAQLr0svEUG1q-5PZJa-19" value="&lt;font style=&quot;font-size: 15px;&quot;&gt;&lt;b&gt;supplied by&lt;/b&gt;&lt;/font&gt;" style="rhombus;whiteSpace=wrap;html=1;" parent="WIyWlLk6GJQsqaUBKTNV-1" vertex="1">
          <mxGeometry x="120" y="1044.5" width="130" height="60" as="geometry" />
        </mxCell>
        <mxCell id="HCAQLr0svEUG1q-5PZJa-20" style="edgeStyle=orthogonalEdgeStyle;rounded=0;orthogonalLoop=1;jettySize=auto;html=1;exitX=0.5;exitY=1;exitDx=0;exitDy=0;entryX=0.5;entryY=0;entryDx=0;entryDy=0;" parent="WIyWlLk6GJQsqaUBKTNV-1" source="HCAQLr0svEUG1q-5PZJa-21" target="HCAQLr0svEUG1q-5PZJa-2" edge="1">
          <mxGeometry relative="1" as="geometry" />
        </mxCell>
        <mxCell id="HCAQLr0svEUG1q-5PZJa-21" value="&lt;font style=&quot;font-size: 15px;&quot;&gt;&lt;b&gt;contains&lt;/b&gt;&lt;/font&gt;" style="rhombus;whiteSpace=wrap;html=1;" parent="WIyWlLk6GJQsqaUBKTNV-1" vertex="1">
          <mxGeometry x="120" y="830" width="130" height="60" as="geometry" />
        </mxCell>
        <mxCell id="HCAQLr0svEUG1q-5PZJa-22" style="edgeStyle=orthogonalEdgeStyle;rounded=0;orthogonalLoop=1;jettySize=auto;html=1;exitX=1;exitY=0.5;exitDx=0;exitDy=0;entryX=0;entryY=0.5;entryDx=0;entryDy=0;" parent="WIyWlLk6GJQsqaUBKTNV-1" source="HCAQLr0svEUG1q-5PZJa-23" target="HCAQLr0svEUG1q-5PZJa-5" edge="1">
          <mxGeometry relative="1" as="geometry" />
        </mxCell>
        <mxCell id="HCAQLr0svEUG1q-5PZJa-23" value="&lt;font style=&quot;font-size: 15px;&quot;&gt;&lt;b&gt;made by&lt;/b&gt;&lt;/font&gt;" style="rhombus;whiteSpace=wrap;html=1;" parent="WIyWlLk6GJQsqaUBKTNV-1" vertex="1">
          <mxGeometry x="345" y="730" width="130" height="60" as="geometry" />
        </mxCell>
        <mxCell id="HCAQLr0svEUG1q-5PZJa-24" style="edgeStyle=orthogonalEdgeStyle;rounded=0;orthogonalLoop=1;jettySize=auto;html=1;exitX=0;exitY=0.5;exitDx=0;exitDy=0;entryX=1;entryY=0.5;entryDx=0;entryDy=0;" parent="WIyWlLk6GJQsqaUBKTNV-1" source="HCAQLr0svEUG1q-5PZJa-25" target="HCAQLr0svEUG1q-5PZJa-10" edge="1">
          <mxGeometry relative="1" as="geometry" />
        </mxCell>
        <mxCell id="HCAQLr0svEUG1q-5PZJa-25" value="&lt;font style=&quot;font-size: 15px;&quot;&gt;&lt;b&gt;works in&lt;/b&gt;&lt;/font&gt;" style="rhombus;whiteSpace=wrap;html=1;" parent="WIyWlLk6GJQsqaUBKTNV-1" vertex="1">
          <mxGeometry x="-270" y="720" width="130" height="60" as="geometry" />
        </mxCell>
        <mxCell id="HCAQLr0svEUG1q-5PZJa-26" style="edgeStyle=orthogonalEdgeStyle;rounded=0;orthogonalLoop=1;jettySize=auto;html=1;exitX=1;exitY=0.5;exitDx=0;exitDy=0;entryX=0;entryY=0.5;entryDx=0;entryDy=0;" parent="WIyWlLk6GJQsqaUBKTNV-1" source="HCAQLr0svEUG1q-5PZJa-27" target="HCAQLr0svEUG1q-5PZJa-13" edge="1">
          <mxGeometry relative="1" as="geometry" />
        </mxCell>
        <mxCell id="HCAQLr0svEUG1q-5PZJa-27" value="&lt;font style=&quot;font-size: 15px;&quot;&gt;&lt;b&gt;makes&lt;/b&gt;&lt;/font&gt;" style="rhombus;whiteSpace=wrap;html=1;" parent="WIyWlLk6GJQsqaUBKTNV-1" vertex="1">
          <mxGeometry x="-70" y="730" width="130" height="60" as="geometry" />
        </mxCell>
        <mxCell id="HCAQLr0svEUG1q-5PZJa-28" value="(1,1)" style="text;html=1;align=center;verticalAlign=middle;whiteSpace=wrap;rounded=0;" parent="WIyWlLk6GJQsqaUBKTNV-1" vertex="1">
          <mxGeometry x="245" y="934.5" width="60" height="30" as="geometry" />
        </mxCell>
        <mxCell id="HCAQLr0svEUG1q-5PZJa-29" value="(1,m)" style="text;html=1;align=center;verticalAlign=middle;whiteSpace=wrap;rounded=0;" parent="WIyWlLk6GJQsqaUBKTNV-1" vertex="1">
          <mxGeometry x="490" y="934.5" width="60" height="30" as="geometry" />
        </mxCell>
        <mxCell id="HCAQLr0svEUG1q-5PZJa-30" value="(1,m)" style="text;html=1;align=center;verticalAlign=middle;whiteSpace=wrap;rounded=0;" parent="WIyWlLk6GJQsqaUBKTNV-1" vertex="1">
          <mxGeometry x="380" y="904.5" width="60" height="30" as="geometry" />
        </mxCell>
        <mxCell id="HCAQLr0svEUG1q-5PZJa-31" value="(1,m)" style="text;html=1;align=center;verticalAlign=middle;whiteSpace=wrap;rounded=0;" parent="WIyWlLk6GJQsqaUBKTNV-1" vertex="1">
          <mxGeometry x="380" y="700" width="60" height="30" as="geometry" />
        </mxCell>
        <mxCell id="HCAQLr0svEUG1q-5PZJa-32" value="(1,m)" style="text;html=1;align=center;verticalAlign=middle;whiteSpace=wrap;rounded=0;" parent="WIyWlLk6GJQsqaUBKTNV-1" vertex="1">
          <mxGeometry x="245" y="730" width="60" height="30" as="geometry" />
        </mxCell>
        <mxCell id="HCAQLr0svEUG1q-5PZJa-33" value="(1,1)" style="text;html=1;align=center;verticalAlign=middle;whiteSpace=wrap;rounded=0;" parent="WIyWlLk6GJQsqaUBKTNV-1" vertex="1">
          <mxGeometry x="490" y="730" width="60" height="30" as="geometry" />
        </mxCell>
        <mxCell id="HCAQLr0svEUG1q-5PZJa-34" value="(1,m)" style="text;html=1;align=center;verticalAlign=middle;whiteSpace=wrap;rounded=0;" parent="WIyWlLk6GJQsqaUBKTNV-1" vertex="1">
          <mxGeometry x="190" y="1114.5" width="60" height="30" as="geometry" />
        </mxCell>
        <mxCell id="HCAQLr0svEUG1q-5PZJa-35" value="(m,m)" style="text;html=1;align=center;verticalAlign=middle;whiteSpace=wrap;rounded=0;" parent="WIyWlLk6GJQsqaUBKTNV-1" vertex="1">
          <mxGeometry x="250" y="1054.5" width="60" height="30" as="geometry" />
        </mxCell>
        <mxCell id="HCAQLr0svEUG1q-5PZJa-36" value="(1,m)" style="text;html=1;align=center;verticalAlign=middle;whiteSpace=wrap;rounded=0;" parent="WIyWlLk6GJQsqaUBKTNV-1" vertex="1">
          <mxGeometry x="190" y="1004.5" width="60" height="30" as="geometry" />
        </mxCell>
        <mxCell id="HCAQLr0svEUG1q-5PZJa-37" value="(m,m)" style="text;html=1;align=center;verticalAlign=middle;whiteSpace=wrap;rounded=0;" parent="WIyWlLk6GJQsqaUBKTNV-1" vertex="1">
          <mxGeometry x="250" y="840" width="60" height="30" as="geometry" />
        </mxCell>
        <mxCell id="HCAQLr0svEUG1q-5PZJa-38" value="(1,m)" style="text;html=1;align=center;verticalAlign=middle;whiteSpace=wrap;rounded=0;" parent="WIyWlLk6GJQsqaUBKTNV-1" vertex="1">
          <mxGeometry x="185" y="800" width="60" height="30" as="geometry" />
        </mxCell>
        <mxCell id="HCAQLr0svEUG1q-5PZJa-39" value="(1,m)" style="text;html=1;align=center;verticalAlign=middle;whiteSpace=wrap;rounded=0;" parent="WIyWlLk6GJQsqaUBKTNV-1" vertex="1">
          <mxGeometry x="185" y="890" width="60" height="30" as="geometry" />
        </mxCell>
        <mxCell id="HCAQLr0svEUG1q-5PZJa-40" value="(1,m)" style="text;html=1;align=center;verticalAlign=middle;whiteSpace=wrap;rounded=0;" parent="WIyWlLk6GJQsqaUBKTNV-1" vertex="1">
          <mxGeometry x="-35" y="700" width="60" height="30" as="geometry" />
        </mxCell>
        <mxCell id="HCAQLr0svEUG1q-5PZJa-41" value="(1,m)" style="text;html=1;align=center;verticalAlign=middle;whiteSpace=wrap;rounded=0;" parent="WIyWlLk6GJQsqaUBKTNV-1" vertex="1">
          <mxGeometry x="60" y="730" width="60" height="30" as="geometry" />
        </mxCell>
        <mxCell id="HCAQLr0svEUG1q-5PZJa-42" value="(1,1)" style="text;html=1;align=center;verticalAlign=middle;whiteSpace=wrap;rounded=0;" parent="WIyWlLk6GJQsqaUBKTNV-1" vertex="1">
          <mxGeometry x="-150" y="830" width="60" height="30" as="geometry" />
        </mxCell>
        <mxCell id="HCAQLr0svEUG1q-5PZJa-44" style="edgeStyle=orthogonalEdgeStyle;rounded=0;orthogonalLoop=1;jettySize=auto;html=1;exitX=0.5;exitY=0;exitDx=0;exitDy=0;entryX=0;entryY=0.5;entryDx=0;entryDy=0;" parent="WIyWlLk6GJQsqaUBKTNV-1" source="HCAQLr0svEUG1q-5PZJa-45" target="HCAQLr0svEUG1q-5PZJa-9" edge="1">
          <mxGeometry relative="1" as="geometry" />
        </mxCell>
        <mxCell id="HCAQLr0svEUG1q-5PZJa-45" value="&lt;font style=&quot;font-size: 15px;&quot;&gt;&lt;b&gt;supervise&lt;/b&gt;&lt;/font&gt;" style="rhombus;whiteSpace=wrap;html=1;" parent="WIyWlLk6GJQsqaUBKTNV-1" vertex="1">
          <mxGeometry x="-375" y="870" width="100" height="55.5" as="geometry" />
        </mxCell>
        <mxCell id="HCAQLr0svEUG1q-5PZJa-50" value="(1,m)" style="text;html=1;align=center;verticalAlign=middle;whiteSpace=wrap;rounded=0;" parent="WIyWlLk6GJQsqaUBKTNV-1" vertex="1">
          <mxGeometry x="-410" y="850" width="60" height="30" as="geometry" />
        </mxCell>
        <mxCell id="HCAQLr0svEUG1q-5PZJa-51" value="(1,1)" style="text;html=1;align=center;verticalAlign=middle;whiteSpace=wrap;rounded=0;" parent="WIyWlLk6GJQsqaUBKTNV-1" vertex="1">
          <mxGeometry x="-290" y="920" width="60" height="30" as="geometry" />
        </mxCell>
        <mxCell id="HCAQLr0svEUG1q-5PZJa-52" value="(1,m)" style="text;html=1;align=center;verticalAlign=middle;whiteSpace=wrap;rounded=0;" parent="WIyWlLk6GJQsqaUBKTNV-1" vertex="1">
          <mxGeometry x="-335" y="810" width="60" height="30" as="geometry" />
        </mxCell>
        <mxCell id="HCAQLr0svEUG1q-5PZJa-53" value="(1,m)" style="text;html=1;align=center;verticalAlign=middle;whiteSpace=wrap;rounded=0;" parent="WIyWlLk6GJQsqaUBKTNV-1" vertex="1">
          <mxGeometry x="-205" y="790" width="60" height="30" as="geometry" />
        </mxCell>
        <mxCell id="HCAQLr0svEUG1q-5PZJa-54" value="(1,1)" style="text;html=1;align=center;verticalAlign=middle;whiteSpace=wrap;rounded=0;" parent="WIyWlLk6GJQsqaUBKTNV-1" vertex="1">
          <mxGeometry x="-325" y="750" width="60" height="30" as="geometry" />
        </mxCell>
        <mxCell id="HCAQLr0svEUG1q-5PZJa-55" value="(1,m)" style="text;html=1;align=center;verticalAlign=middle;whiteSpace=wrap;rounded=0;" parent="WIyWlLk6GJQsqaUBKTNV-1" vertex="1">
          <mxGeometry x="-235" y="680" width="60" height="30" as="geometry" />
        </mxCell>
        <mxCell id="BUu4aacgSC-cj_1PQWJ9-0" value="&lt;font style=&quot;font-size: 14px;&quot;&gt;&lt;b&gt;Name&lt;/b&gt;&lt;/font&gt;" style="ellipse;whiteSpace=wrap;html=1;" vertex="1" parent="WIyWlLk6GJQsqaUBKTNV-1">
          <mxGeometry x="-110" y="869" width="50" height="35.5" as="geometry" />
        </mxCell>
        <mxCell id="BUu4aacgSC-cj_1PQWJ9-1" value="&lt;font style=&quot;font-size: 14px;&quot;&gt;&lt;b&gt;Surname_1&lt;/b&gt;&lt;/font&gt;" style="ellipse;whiteSpace=wrap;html=1;" vertex="1" parent="WIyWlLk6GJQsqaUBKTNV-1">
          <mxGeometry x="-70" y="904.5" width="85" height="41" as="geometry" />
        </mxCell>
        <mxCell id="BUu4aacgSC-cj_1PQWJ9-2" value="&lt;font style=&quot;font-size: 14px;&quot;&gt;&lt;b&gt;Surname_2&lt;/b&gt;&lt;/font&gt;" style="ellipse;whiteSpace=wrap;html=1;" vertex="1" parent="WIyWlLk6GJQsqaUBKTNV-1">
          <mxGeometry x="-162.5" y="923.5" width="85" height="41" as="geometry" />
        </mxCell>
        <mxCell id="BUu4aacgSC-cj_1PQWJ9-3" value="" style="endArrow=none;html=1;rounded=0;exitX=0;exitY=0.5;exitDx=0;exitDy=0;entryX=1;entryY=0.75;entryDx=0;entryDy=0;" edge="1" parent="WIyWlLk6GJQsqaUBKTNV-1" source="BUu4aacgSC-cj_1PQWJ9-0" target="HCAQLr0svEUG1q-5PZJa-9">
          <mxGeometry width="50" height="50" relative="1" as="geometry">
            <mxPoint x="130" y="900" as="sourcePoint" />
            <mxPoint x="180" y="850" as="targetPoint" />
          </mxGeometry>
        </mxCell>
        <mxCell id="BUu4aacgSC-cj_1PQWJ9-4" value="" style="endArrow=none;html=1;rounded=0;exitX=0;exitY=0.5;exitDx=0;exitDy=0;entryX=1;entryY=1;entryDx=0;entryDy=0;" edge="1" parent="WIyWlLk6GJQsqaUBKTNV-1" source="BUu4aacgSC-cj_1PQWJ9-1" target="HCAQLr0svEUG1q-5PZJa-9">
          <mxGeometry width="50" height="50" relative="1" as="geometry">
            <mxPoint x="-80" y="912" as="sourcePoint" />
            <mxPoint x="-135" y="875" as="targetPoint" />
          </mxGeometry>
        </mxCell>
        <mxCell id="BUu4aacgSC-cj_1PQWJ9-5" value="" style="endArrow=none;html=1;rounded=0;exitX=0.5;exitY=0;exitDx=0;exitDy=0;entryX=0.925;entryY=1;entryDx=0;entryDy=0;entryPerimeter=0;" edge="1" parent="WIyWlLk6GJQsqaUBKTNV-1" source="BUu4aacgSC-cj_1PQWJ9-2" target="HCAQLr0svEUG1q-5PZJa-9">
          <mxGeometry width="50" height="50" relative="1" as="geometry">
            <mxPoint x="-70" y="922" as="sourcePoint" />
            <mxPoint x="-125" y="885" as="targetPoint" />
          </mxGeometry>
        </mxCell>
        <mxCell id="BUu4aacgSC-cj_1PQWJ9-6" value="&lt;b&gt;Role&lt;/b&gt;" style="ellipse;whiteSpace=wrap;html=1;" vertex="1" parent="WIyWlLk6GJQsqaUBKTNV-1">
          <mxGeometry x="-195" y="890" width="50" height="35.5" as="geometry" />
        </mxCell>
        <mxCell id="BUu4aacgSC-cj_1PQWJ9-8" value="" style="endArrow=none;html=1;rounded=0;exitX=0.5;exitY=0;exitDx=0;exitDy=0;entryX=0.75;entryY=1;entryDx=0;entryDy=0;" edge="1" parent="WIyWlLk6GJQsqaUBKTNV-1" source="BUu4aacgSC-cj_1PQWJ9-6" target="HCAQLr0svEUG1q-5PZJa-9">
          <mxGeometry width="50" height="50" relative="1" as="geometry">
            <mxPoint x="-110" y="934" as="sourcePoint" />
            <mxPoint x="-144" y="890" as="targetPoint" />
          </mxGeometry>
        </mxCell>
      </root>
    </mxGraphModel>
  </diagram>
</mxfile>
